PathFileType	4	(X/Y/Z)	/Users/itak/Documents/Research/Walk-IL/dataset/trc/00497_00183.trc
DataRate	CameraRate	NumFrames	NumMarkers	Units	OrigDataRate	OrigDataStartFrame	OrigNumFrames
100.000000	100.000000	4	53	mm	100.000000	90	723
Frame#	Time	RPSI			LPSI			L3			STRN			T10			C7			CLAV			RBAK			LBAK			LSHO			LUPA			LAEL			LAOL			LWTS			LWPS			LFRA			LIFD			LHPS			LHTS			RSHO			RUPA			RAEL			RAOL			RWTS			RWPS			RFRA			RIFD			RHTS			RHPS			RBHD			LFHD			RFHD			LBHD			LHIP			RHIP			RASI			LASI			LKNE			LTHI			LANK			LTIP			LTOE			LMT1			LMT5			LHEE			RKNE			RTHI			RANK			RTIP			RTOE			RMT1			RMT5			RHEE			
		X1	Y1	Z1	X2	Y2	Z2	X3	Y3	Z3	X4	Y4	Z4	X5	Y5	Z5	X6	Y6	Z6	X7	Y7	Z7	X8	Y8	Z8	X9	Y9	Z9	X10	Y10	Z10	X11	Y11	Z11	X12	Y12	Z12	X13	Y13	Z13	X14	Y14	Z14	X15	Y15	Z15	X16	Y16	Z16	X17	Y17	Z17	X18	Y18	Z18	X19	Y19	Z19	X20	Y20	Z20	X21	Y21	Z21	X22	Y22	Z22	X23	Y23	Z23	X24	Y24	Z24	X25	Y25	Z25	X26	Y26	Z26	X27	Y27	Z27	X28	Y28	Z28	X29	Y29	Z29	X30	Y30	Z30	X31	Y31	Z31	X32	Y32	Z32	X33	Y33	Z33	X34	Y34	Z34	X35	Y35	Z35	X36	Y36	Z36	X37	Y37	Z37	X38	Y38	Z38	X39	Y39	Z39	X40	Y40	Z40	X41	Y41	Z41	X42	Y42	Z42	X43	Y43	Z43	X44	Y44	Z44	X45	Y45	Z45	X46	Y46	Z46	X47	Y47	Z47	X48	Y48	Z48	X49	Y49	Z49	X50	Y50	Z50	X51	Y51	Z51	X52	Y52	Z52	X53	Y53	Z53	

91	0.9	-1097.287353515625	975.843017578125	-385.264404296875	-1034.474243164062	973.0090942382812	-492.7024536132812	-1078.420776367188	1033.494262695312	-448.6132507324219	-877.3582763671875	1197.20263671875	-358.9339294433594	-1094.714477539062	1139.573120117188	-452.0213928222656	-1052.315551757812	1370.302001953125	-434.1084899902344	-909.3922119140625	1292.23876953125	-374.6534729003906	-1130.761596679688	1249.245971679688	-373.34814453125	-1042.244506835938	1315.645385742188	-523.8368530273438	-926.1170654296875	1360.565185546875	-555.3472290039062	-917.1958618164062	1232.853393554688	-614.6681518554688	-904.983154296875	1022.869812011719	-633.0524291992188	-999.2537231445312	1017.378967285156	-600.858642578125	-828.361083984375	839.5889282226562	-563.536865234375	-887.4080200195312	802.956298828125	-627.2858276367188	-884.2965087890625	951.30322265625	-628.238037109375	-837.6937255859375	681.7791748046875	-543.7758178710938	-868.6425170898438	747.69384765625	-610.0979614257812	-817.3270874023438	758.4130859375	-572.9943237304688	-1059.9189453125	1366.1171875	-276.0588989257812	-1097.365112304688	1298.552734375	-229.0346221923828	-1094.376098632812	1030.864501953125	-180.4286193847656	-1137.804321289062	1012.914672851562	-227.6941070556641	-981.564453125	832.579345703125	-200.9284973144531	-1060.287353515625	808.8551025390625	-159.0790710449219	-1088.211791992188	976.2658081054688	-172.5690002441406	-979.0040283203125	672.765625	-202.9168548583984	-968.1095581054688	737.805419921875	-176.7515563964844	-1036.97509765625	734.782470703125	-157.7114105224609	-1070.22900390625	1501.529296875	-353.7496643066406	-916.9779663085938	1608.640258789062	-425.513916015625	-979.2822265625	1597.779541015625	-314.9977111816406	-1002.690185546875	1505.869995117188	-497.876708984375	-883.332763671875	893.33935546875	-561.2501220703125	-1067.439697265625	870.4695434570312	-230.6138153076172	-944.45849609375	906.574951171875	-238.9494323730469	-834.8687133789062	920.7517700195312	-454.6893615722656	-928.1326293945312	469.4226684570312	-539.2166137695312	-890.7349853515625	625.6664428710938	-545.48828125	-1012.800354003906	46.07343292236328	-543.8833618164062	-961.2349853515625	324.4051513671875	-556.1788940429688	-872.40869140625	41.29716873168945	-394.95361328125	-954.4446411132812	46.29825973510742	-405.2826843261719	-911.7388916015625	42.11125946044922	-498.6915588378906	-1084.1142578125	47.29006576538086	-512.1651000976562	-1084.461791992188	482.5838317871094	-259.6317138671875	-1053.969970703125	740.0997314453125	-215.1112213134766	-1119.477783203125	48.43584823608398	-316.5106506347656	-1084.351928710938	341.55419921875	-276.3786315917969	-915.0235595703125	44.52146148681641	-302.4163208007812	-969.1289672851562	52.06985855102539	-355.2119140625	-1015.125305175781	45.40192794799805	-269.3380126953125	-1155.205932617188	40.10551452636719	-377.4653930664062	
92	0.91	-1097.201782226562	975.8364868164062	-385.36279296875	-1034.389892578125	973.0137939453125	-492.7705688476562	-1078.363159179688	1033.508666992188	-448.7166442871094	-877.3380126953125	1197.183349609375	-358.9523010253906	-1094.5849609375	1139.58642578125	-452.1835632324219	-1052.17919921875	1370.309936523438	-434.2433471679688	-909.2758178710938	1292.233642578125	-374.7578735351562	-1130.641967773438	1249.257690429688	-373.4854125976562	-1042.090209960938	1315.645385742188	-523.9646606445312	-926.007568359375	1360.546875	-555.4293823242188	-917.0841674804688	1232.851928710938	-614.7406005859375	-904.8333740234375	1022.858764648438	-633.1051025390625	-999.1547241210938	1017.385925292969	-600.92333984375	-828.289794921875	839.5745849609375	-563.5797119140625	-887.3207397460938	802.90625	-627.3416748046875	-884.2337036132812	951.2787475585938	-628.306396484375	-837.5643310546875	681.8128051757812	-543.8365478515625	-868.5311279296875	747.6884765625	-610.1126708984375	-817.2040405273438	758.4017944335938	-573.0084228515625	-1059.823608398438	1366.117553710938	-276.1342468261719	-1097.308471679688	1298.566650390625	-229.1254730224609	-1094.330444335938	1030.872680664062	-180.5305023193359	-1137.750610351562	1012.923156738281	-227.80322265625	-981.5452880859375	832.5809936523438	-200.9663543701172	-1060.268310546875	808.8653564453125	-159.1427001953125	-1088.162475585938	976.2889404296875	-172.6629943847656	-978.9705810546875	672.7686767578125	-202.9833679199219	-968.09912109375	737.8085327148438	-176.8023376464844	-1036.962036132812	734.8019409179688	-157.7826080322266	-1070.028442382812	1501.616088867188	-353.8293151855469	-916.759033203125	1608.609741210938	-425.6494445800781	-979.013427734375	1597.80859375	-315.1231689453125	-1002.505310058594	1505.861938476562	-498.0091552734375	-883.1265258789062	893.3396606445312	-561.2557983398438	-1066.952758789062	870.1310424804688	-230.4535369873047	-944.4230346679688	906.57861328125	-239.02734375	-834.745849609375	920.7400512695312	-454.7101745605469	-928.1385498046875	469.3990783691406	-539.2571411132812	-890.7080688476562	625.6473388671875	-545.48974609375	-1012.798950195312	46.07195281982422	-543.8908081054688	-961.2350463867188	324.3919067382812	-556.2201538085938	-872.43896484375	41.27762222290039	-394.9361267089844	-954.4340209960938	46.30080032348633	-405.3032836914062	-911.732421875	42.10091018676758	-498.6992492675781	-1084.110473632812	47.29129791259766	-512.1616821289062	-1084.40185546875	482.5922546386719	-259.6714782714844	-1054.01416015625	740.1255493164062	-215.0680847167969	-1119.475708007812	48.44199371337891	-316.5111389160156	-1084.316528320312	341.5578002929688	-276.3919067382812	-915.0217895507812	44.51766586303711	-302.4178161621094	-969.1232299804688	52.06169128417969	-355.2218322753906	-1015.119995117188	45.40653610229492	-269.347412109375	-1155.204345703125	40.10619354248047	-377.4697875976562	
93	0.92	-1097.123779296875	975.832763671875	-385.4509887695312	-1034.3134765625	973.0209350585938	-492.8236694335938	-1078.30615234375	1033.529052734375	-448.8178405761719	-877.314453125	1197.15966796875	-358.9727783203125	-1094.4482421875	1139.600830078125	-452.3486022949219	-1052.033447265625	1370.320678710938	-434.3810424804688	-909.159423828125	1292.22802734375	-374.8534545898438	-1130.51953125	1249.274780273438	-373.6151123046875	-1041.928466796875	1315.650390625	-524.0891723632812	-925.8895874023438	1360.53076171875	-555.5094604492188	-916.9599609375	1232.859375	-614.8159790039062	-904.6939697265625	1022.844604492188	-633.1616821289062	-999.0389404296875	1017.388916015625	-600.9850463867188	-828.2216186523438	839.561279296875	-563.6229858398438	-887.2332153320312	802.8572998046875	-627.4004516601562	-884.1580200195312	951.2593994140625	-628.3764038085938	-837.4411010742188	681.84326171875	-543.896728515625	-868.4254760742188	747.6929931640625	-610.1361083984375	-817.0559692382812	758.3890380859375	-573.04150390625	-1059.717651367188	1366.121948242188	-276.2179260253906	-1097.241821289062	1298.583251953125	-229.2182769775391	-1094.281372070312	1030.88525390625	-180.6391143798828	-1137.708740234375	1012.938537597656	-227.8943481445312	-981.5235595703125	832.58642578125	-201.0027160644531	-1060.248046875	808.8783569335938	-159.2051849365234	-1088.112915039062	976.3085327148438	-172.7608795166016	-978.93310546875	672.7745971679688	-203.0495910644531	-968.0848388671875	737.8128051757812	-176.8504638671875	-1036.942016601562	734.824462890625	-157.8563842773438	-1069.84130859375	1501.6923828125	-353.8914794921875	-916.5579223632812	1608.586059570312	-425.774169921875	-978.7713012695312	1597.8427734375	-315.2387390136719	-1002.3310546875	1505.853271484375	-498.1290893554688	-882.921875	893.339111328125	-561.2628173828125	-1066.37060546875	869.7250366210938	-230.2554931640625	-944.3851318359375	906.5831298828125	-239.1006469726562	-834.6353759765625	920.7220458984375	-454.7422485351562	-928.1463012695312	469.3811950683594	-539.297119140625	-890.6903686523438	625.62646484375	-545.4826049804688	-1012.799865722656	46.07054138183594	-543.8978881835938	-961.2396240234375	324.3885498046875	-556.2591552734375	-872.4750366210938	41.25417327880859	-394.9186096191406	-954.4217529296875	46.30236434936523	-405.3259582519531	-911.7210083007812	42.08987045288086	-498.7090148925781	-1084.1044921875	47.29241943359375	-512.15673828125	-1084.340698242188	482.6025085449219	-259.71337890625	-1054.042114257812	740.1497192382812	-215.0397491455078	-1119.473388671875	48.44745635986328	-316.5106201171875	-1084.281860351562	341.5613708496094	-276.405029296875	-915.0208740234375	44.51334762573242	-302.4177856445312	-969.1190795898438	52.05562591552734	-355.2294921875	-1015.1162109375	45.4094352722168	-269.3562927246094	-1155.203247070312	40.10881805419922	-377.4736022949219	
94	0.93	-1097.05419921875	975.83349609375	-385.5281982421875	-1034.2451171875	973.0289916992188	-492.8643188476562	-1078.251831054688	1033.559204101562	-448.9147644042969	-877.28271484375	1197.132690429688	-358.9967956542969	-1094.3076171875	1139.615478515625	-452.5104370117188	-1051.879150390625	1370.335083007812	-434.5214538574219	-909.0458374023438	1292.22216796875	-374.936767578125	-1130.395874023438	1249.297973632812	-373.7348327636719	-1041.761596679688	1315.659912109375	-524.2077026367188	-925.7637939453125	1360.516235351562	-555.586181640625	-916.8231201171875	1232.875	-614.8939819335938	-904.5647583007812	1022.826477050781	-633.224365234375	-998.9050903320312	1017.388000488281	-601.0391845703125	-828.1533203125	839.5509643554688	-563.6697998046875	-887.1417236328125	802.812255859375	-627.4605712890625	-884.0693359375	951.2451171875	-628.4471435546875	-837.3291015625	681.8681030273438	-543.9547729492188	-868.32568359375	747.7084350585938	-610.1709594726562	-816.8824462890625	758.3741455078125	-573.0978393554688	-1059.603515625	1366.132080078125	-276.3098449707031	-1097.16455078125	1298.603271484375	-229.3128204345703	-1094.2294921875	1030.904174804688	-180.75048828125	-1137.676879882812	1012.963134765625	-227.9676208496094	-981.4996948242188	832.5963134765625	-201.0387268066406	-1060.226196289062	808.8955688476562	-159.2666168212891	-1088.063232421875	976.3252563476562	-172.8614501953125	-978.894287109375	672.7843017578125	-203.1152801513672	-968.06689453125	737.8186645507812	-176.8961791992188	-1036.916259765625	734.8516845703125	-157.9294586181641	-1069.66650390625	1501.759765625	-353.9391784667969	-916.3659057617188	1608.565795898438	-425.8941345214844	-978.5528564453125	1597.8828125	-315.3473510742188	-1002.169250488281	1505.844848632812	-498.2362060546875	-882.72802734375	893.3369140625	-561.275634765625	-1065.71484375	869.2662353515625	-230.0287780761719	-944.345703125	906.5894165039062	-239.1685028076172	-834.544189453125	920.6948852539062	-454.7884826660156	-928.15625	469.3691711425781	-539.3389892578125	-890.6815185546875	625.6045532226562	-545.4696655273438	-1012.80322265625	46.06936264038086	-543.90478515625	-961.25244140625	324.3932495117188	-556.29931640625	-872.5150146484375	41.2282829284668	-394.9012145996094	-954.4080810546875	46.30377197265625	-405.351318359375	-911.7039184570312	42.07878875732422	-498.7213745117188	-1084.096557617188	47.2938232421875	-512.1507568359375	-1084.279174804688	482.61474609375	-259.7564392089844	-1054.04248046875	740.1709594726562	-215.0429382324219	-1119.470458984375	48.45271301269531	-316.5093994140625	-1084.248046875	341.5655822753906	-276.4188537597656	-915.0206909179688	44.50806427001953	-302.416748046875	-969.1163940429688	52.05113220214844	-355.2349243164062	-1015.114135742188	45.41110229492188	-269.3636779785156	-1155.202270507812	40.11330413818359	-377.4773559570312	
